<?xml version="1.0" encoding="UTF-8"?>
<svg width="256px" height="256px" viewBox="0 0 256 256" version="1.1" xmlns="http://www.w3.org/2000/svg" xmlns:xlink="http://www.w3.org/1999/xlink" preserveAspectRatio="xMidYMid">
    <g>
        <path d="M128,0 C57.307,0 0,57.307 0,128 L0,128 C0,198.693 57.307,256 128,256 L128,256 C198.693,256 256,198.693 256,128 L256,128 C256,57.307 198.693,0 128,0 L128,0 Z" fill="#FFFFFF"></path>
        <path d="M209.059,128.5 C209.059,95.3 181.03,68.45 146.059,68.45 C111.088,68.45 83.059,95.3 83.059,128.5 C83.059,158.41 105.54,183.46 135.059,187.71 C137.06,188.09 140.06,188.91 140.83,190.52 C141.5,191.99 141.23,194.41 140.97,196.14 C140.97,196.14 140.03,200.41 139.8,201.37 C139.32,203.23 137.77,208.31 146.059,204.77 C154.348,201.23 183.84,183.8 197.11,169.35 L197.109,169.351 C205.639,160.001 209.059,144.91 209.059,128.5 L209.059,128.5 Z M139.421,156.36 L125.323,156.36 C124.426,156.36 123.703,155.637 123.703,154.74 L123.703,154.74 L123.703,129.95 C123.703,129.053 124.426,128.33 125.323,128.33 L125.323,128.33 L139.421,128.33 C140.318,128.33 141.041,129.053 141.041,129.95 L141.041,129.95 L141.041,154.74 C141.041,155.637 140.318,156.36 139.421,156.36 L139.421,156.36 Z M174.42,156.36 L160.322,156.36 C159.425,156.36 158.702,155.637 158.702,154.74 L158.702,154.74 L158.702,129.95 C158.702,129.053 159.425,128.33 160.322,128.33 L160.322,128.33 L174.42,128.33 C175.317,128.33 176.04,129.053 176.04,129.95 L176.04,129.95 L176.04,154.74 C176.04,155.637 175.317,156.36 174.42,156.36 L174.42,156.36 Z M113.422,142.016 L113.422,154.74 C113.422,155.637 112.699,156.36 111.802,156.36 L111.802,156.36 L97.704,156.36 C96.807,156.36 96.084,155.637 96.084,154.74 L96.084,154.74 L96.084,129.95 C96.084,129.053 96.807,128.33 97.704,128.33 L97.704,128.33 L111.802,128.33 C112.699,128.33 113.422,129.053 113.422,129.95 L113.422,129.95 L113.422,136.16 L104.422,130.861 L104.422,142.016 L113.422,142.016 Z M148.703,142.016 L148.703,129.95 C148.703,129.053 149.426,128.33 150.323,128.33 L150.323,128.33 L164.421,128.33 C165.318,128.33 166.041,129.053 166.041,129.95 L166.041,129.95 L166.041,154.74 C166.041,155.637 165.318,156.36 164.421,156.36 L164.421,156.36 L150.323,156.36 C149.426,156.36 148.703,155.637 148.703,154.74 L148.703,154.74 L148.703,148.53 L157.703,153.829 L157.703,142.674 L148.703,142.016 Z" fill="#06C755"></path>
    </g>
</svg>
